<svg xmlns="http://www.w3.org/2000/svg" xmlns:xlink="http://www.w3.org/1999/xlink" width="500" zoomAndPan="magnify" viewBox="0 0 375 374.999991" height="500" preserveAspectRatio="xMidYMid meet" version="1.0"><defs><g/><clipPath id="b5d6aae26b"><path d="M 246.09375 253.289062 L 358.835938 253.289062 L 358.835938 366.03125 L 246.09375 366.03125 Z M 246.09375 253.289062 " clip-rule="nonzero"/></clipPath><clipPath id="95be8969b7"><path d="M 302.464844 253.289062 C 271.332031 253.289062 246.09375 278.527344 246.09375 309.660156 C 246.09375 340.792969 271.332031 366.03125 302.464844 366.03125 C 333.597656 366.03125 358.835938 340.792969 358.835938 309.660156 C 358.835938 278.527344 333.597656 253.289062 302.464844 253.289062 Z M 302.464844 253.289062 " clip-rule="nonzero"/></clipPath></defs><g clip-path="url(#b5d6aae26b)"><g clip-path="url(#95be8969b7)"><path fill="#d9a821" d="M 246.09375 253.289062 L 358.835938 253.289062 L 358.835938 366.03125 L 246.09375 366.03125 Z M 246.09375 253.289062 " fill-opacity="1" fill-rule="nonzero"/></g></g><g fill="#000000" fill-opacity="1"><g transform="translate(31.845129, 366.824669)"><g><path d="M 185.703125 -365.625 L 185.703125 -103.265625 C 185.703125 -67.515625 175.875 -40.257812 156.21875 -21.5 C 136.570312 -2.738281 108.429688 6.640625 71.796875 6.640625 C 62.046875 6.640625 52.441406 5.457031 42.984375 3.09375 C 33.535156 0.738281 25.5625 -2.132812 19.0625 -5.53125 C 12.5625 -8.9375 6.722656 -12.410156 1.546875 -15.953125 C -3.617188 -19.492188 -7.382812 -22.445312 -9.75 -24.8125 L -13.734375 -28.359375 L 12.859375 -97.9375 C 30.285156 -81.394531 46.09375 -73.125 60.28125 -73.125 C 72.976562 -73.125 83.164062 -77.332031 90.84375 -85.75 C 98.53125 -94.175781 102.375 -107.101562 102.375 -124.53125 L 102.375 -365.625 Z M 185.703125 -365.625 "/></g></g></g></svg>